<svg xmlns="http://www.w3.org/2000/svg" viewBox="0 0 64 64" fill="none">
  <rect width="64" height="64" rx="8" fill="#28221e"/>
  <path d="M8 22h42a3 3 0 0 1 3 3v27a3 3 0 0 1-3 3H8a3 3 0 0 1-3-3V25a3 3 0 0 1 3-3Z" stroke="#fff" stroke-width="2"/>
  <path d="M14 22v-5a3 3 0 0 1 3-3h14a3 3 0 0 1 3 3v5" stroke="#fff" stroke-width="2" stroke-linejoin="round"/>
  <circle cx="29" cy="38" r="12.5" stroke="#fff" stroke-width="2"/>
  <text x="29" y="42" text-anchor="middle" fill="#fff" font-family="Georgia, 'Times New Roman', serif" font-size="11" font-weight="bold" letter-spacing="-1">LP</text>
  <path d="m55 5 2 5.5 5.5 2-5.5 2-2 5.5-2-5.5-5.5-2 5.5-2L55 5Z" fill="#e8c897"/>
</svg>
